<mxfile host="app.diagrams.net" modified="2023-05-16T10:07:17.014Z" agent="Mozilla/5.0 (Windows NT 10.0; Win64; x64) AppleWebKit/537.36 (KHTML, like Gecko) Chrome/113.0.0.0 Safari/537.36" etag="xn-Wa1ZhMKF2nIbxw1Xq" version="21.3.2" type="github">
  <diagram name="第 1 页" id="hYwSPWnD0R3mvGRATKQR">
    <mxGraphModel dx="1506" dy="894" grid="1" gridSize="10" guides="1" tooltips="1" connect="1" arrows="1" fold="1" page="1" pageScale="1" pageWidth="827" pageHeight="1169" math="0" shadow="0">
      <root>
        <mxCell id="0" />
        <mxCell id="1" parent="0" />
        <mxCell id="962obIwDHnLTAN8AyWVL-1" value="" style="rounded=0;whiteSpace=wrap;html=1;" vertex="1" parent="1">
          <mxGeometry x="80" y="220" width="450" height="300" as="geometry" />
        </mxCell>
        <mxCell id="962obIwDHnLTAN8AyWVL-5" value="文件系统" style="rounded=0;whiteSpace=wrap;html=1;" vertex="1" parent="1">
          <mxGeometry x="580" y="220" width="120" height="60" as="geometry" />
        </mxCell>
        <mxCell id="962obIwDHnLTAN8AyWVL-6" value="文件系统" style="rounded=0;whiteSpace=wrap;html=1;" vertex="1" parent="1">
          <mxGeometry x="580" y="300" width="120" height="60" as="geometry" />
        </mxCell>
      </root>
    </mxGraphModel>
  </diagram>
</mxfile>
